<?xml version="1.0" encoding="UTF-8"?>
<svg xmlns="http://www.w3.org/2000/svg" version="1.1" xmlns:xlink="http://www.w3.org/1999/xlink" viewBox="0 0 56.69 45.35">
  <defs>
    <style>
      .cls-1, .cls-2 {
        fill: #786a25;
      }

      .cls-1, .cls-3 {
        stroke-width: 0px;
      }

      .cls-2 {
        font-family: MyriadPro-Regular, 'Myriad Pro';
        font-size: 8.25px;
      }

      .cls-3 {
        fill: url(#radial-gradient);
      }

      .cls-4 {
        display: none;
      }
    </style>
    <radialGradient id="radial-gradient" cx="28.3" cy="21.26" fx="28.3" fy="21.26" r="16.25" gradientUnits="userSpaceOnUse">
      <stop offset="0" stop-color="#997ab0"/>
      <stop offset="0" stop-color="#f8e39e"/>
      <stop offset=".18" stop-color="#f8e4a3"/>
      <stop offset=".4" stop-color="#f9e8b2"/>
      <stop offset=".64" stop-color="#fbf0cb"/>
      <stop offset=".89" stop-color="#fdfaee"/>
      <stop offset="1" stop-color="#fff"/>
    </radialGradient>
  </defs>
  <g id="FONS" class="cls-4">
    <ellipse class="cls-3" cx="28.3" cy="21.26" rx="16.61" ry="15.88"/>
  </g>
  <g id="Layer_1" data-name="Layer 1">
    <g>
      <text class="cls-2" transform="translate(23.37 37.22)"><tspan x="0" y="0">Sauleja</tspan></text>
      <g>
        <path class="cls-1" d="M30.65,19.06c6.12,0,11.08,4.93,11.16,11.03.04-.41.07-.83.07-1.25,0-6.49-5.26-11.75-11.75-11.75s-11.75,5.26-11.75,11.75c0,3.41,1.46,6.47,3.78,8.62-1.66-1.95-2.67-4.47-2.67-7.24,0-6.17,5-11.17,11.17-11.17Z"/>
        <path class="cls-1" d="M23.47,16.31c.02.06.04.12.04.19,0,.27-.22.49-.49.49-.17,0-.32-.09-.41-.22l-4.94-9.43,5.8,8.96Z"/>
        <path class="cls-1" d="M30.67,14.7c0,.06-.03.13-.06.19-.14.24-.44.32-.67.18-.15-.09-.23-.24-.24-.39l.46-10.63.52,10.66Z"/>
        <path class="cls-1" d="M26.97,15.19s0,.1-.03.15c-.09.21-.36.34-.62.3-.16-.02-.27-.11-.31-.22l-1.58-7.83,2.54,7.6Z"/>
        <path class="cls-1" d="M34.28,15.31s-.05.08-.1.12c-.18.13-.49.11-.69-.05-.12-.1-.18-.23-.16-.35l2.57-7.56-1.63,7.85Z"/>
        <path class="cls-1" d="M40.42,19.29s-.09.05-.14.05c-.22.03-.48-.14-.57-.38-.06-.15-.04-.29.04-.38l5.97-5.31-5.29,6.02Z"/>
        <path class="cls-1" d="M43.75,25.66s-.1,0-.15-.02c-.21-.09-.34-.36-.3-.62.02-.16.11-.27.22-.31l7.82-1.62-7.59,2.58Z"/>
        <path class="cls-1" d="M20.6,18.54s.05.09.05.14c.03.22-.14.48-.38.57-.15.06-.29.04-.38-.03l-5.35-5.94,6.05,5.25Z"/>
        <path class="cls-1" d="M16.61,24.73s.08.05.12.1c.13.18.11.49-.05.69-.1.12-.23.18-.35.16l-7.57-2.57,7.85,1.63Z"/>
        <path class="cls-1" d="M16.41,31.97s.1,0,.15.03c.21.09.34.36.3.62-.02.16-.11.27-.22.31l-7.83,1.6,7.6-2.55Z"/>
        <path class="cls-1" d="M37.53,16.95c-.04.05-.09.1-.15.13-.24.14-.54.05-.67-.18-.08-.15-.08-.32-.01-.46l5.74-8.96-4.91,9.48Z"/>
        <path class="cls-1" d="M42.61,22.17c-.06.02-.12.04-.19.04-.27,0-.49-.22-.49-.49,0-.17.09-.32.22-.41l9.44-4.93-8.97,5.79Z"/>
        <path class="cls-1" d="M18.1,21.28c.05.04.1.09.13.15.14.24.06.54-.18.67-.15.09-.32.09-.46.02l-8.99-5.7,9.5,4.86Z"/>
        <path class="cls-1" d="M15.95,28.32c.06,0,.13.03.19.06.24.14.32.44.18.67-.09.15-.24.23-.39.24l-10.63-.47,10.66-.52Z"/>
        <path class="cls-1" d="M17.65,35.44c.06-.02.12-.04.19-.04.27,0,.49.22.49.5,0,.17-.09.32-.22.41l-9.45,4.89,8.99-5.76Z"/>
      </g>
      <polygon class="cls-1" points="30.5 23.7 30.5 21.49 29.67 21.49 29.67 23.7 28.07 23.7 28.07 24.53 29.67 24.53 29.67 29.34 30.5 29.34 30.5 24.53 32.1 24.53 32.1 23.7 30.5 23.7"/>
    </g>
  </g>
</svg>